# xmcd
#
# Track frame offsets:
#	150
#	23908
#	38058
#	50112
#	65057
#	77949
#	88235
#	100226
#	111253
#	126134
#	137662
#	147917
#	160380
#	171434
#	191777
#	203274
#
# Disc length: 2866 seconds
#
# Revision: 0
# Processed by: cddbd v1.5.1PL0 Copyright (c) Steve Scherf et al.
# Submitted via: dBpowerAMP V4.0
#
DISCID=ec0b3010
DTITLE=Ray Charles - Classic American Voicees
DYEAR=2003
DGENRE=Blues
TTITLE0=Night Time is the Right Time
TTITLE1=Blues is My Middle Name
TTITLE2=Honey Honey
TTITLE3=Hallelujah, I Love Her So
TTITLE4=Baby, Won't You Please Come Home
TTITLE5=Hey Now
TTITLE6=Going Down Slow
TTITLE7=I'll Do Anything But Work
TTITLE8=Let's Go Get Stoned
TTITLE9=Babe Tell Me What I've Done
TTITLE10=Ain't That Fine
TTITLE11=Rockin' Chair Blues
TTITLE12=Let's Have a Ball
TTITLE13=The Girl I Used to Know
TTITLE14=Let the Good Times Roll
TTITLE15=Hit the Road Jack
EXTD=
EXTT0=
EXTT1=
EXTT2=
EXTT3=
EXTT4=
EXTT5=
EXTT6=
EXTT7=
EXTT8=
EXTT9=
EXTT10=
EXTT11=
EXTT12=
EXTT13=
EXTT14=
EXTT15=
PLAYORDER=
